<?xml version="1.0" standalone="no"?><!DOCTYPE svg PUBLIC "-//W3C//DTD SVG 1.1//EN" "http://www.w3.org/Graphics/SVG/1.1/DTD/svg11.dtd"><svg t="1694258018753" class="icon" viewBox="0 0 1024 1024" version="1.1" xmlns="http://www.w3.org/2000/svg" p-id="2324" xmlns:xlink="http://www.w3.org/1999/xlink" width="200" height="200"><path d="M854.703125 471.38134766c-44.81806641 0-83.07597656 28.73935547-97.284375 68.79550781h-78.21123047c1.55039063-9.30761719 2.54003906-18.82880859 2.54003906-28.73496094 0-63.43769531-35.578125-118.58554687-87.80097656-146.65253906l29.97070313-99.11953125c7.76074219 1.86855469 15.93896484 2.92412109 24.36679687 2.92412109 56.98300781 0 103.246875-46.22783203 103.246875-103.34970703C751.53095703 108.22519531 705.26621094 62 648.28320313 62 591.23339844 62 545.00380859 108.22519531 545.00380859 165.24511719c0 43.33535156 26.58603516 80.28808594 64.31660157 95.66279297l-29.37304688 97.28789062c-19.81845703-8.42783203-41.71464844-13.01396484-64.63476562-13.01396484-43.23076172 0-82.47744141 16.39863281-112.09570313 43.33886719l-153.703125-153.74267579-1.65849609 1.76572266c17.52539063-18.5484375 28.35087891-43.58408203 28.3508789-71.19492187 0-57.01728516-46.15751953-103.24511719-103.24511718-103.24511719C115.90771484 62.10371094 69.67900391 108.33154297 69.67900391 165.34882812c0 57.15966797 46.22783203 103.35234375 103.28203125 103.35234375 27.60820312 0 52.64560547-10.86152344 71.12109375-28.41943359l-5.42988282 5.32353516 153.7734375 153.703125c-27.00791016 29.58574219-43.51113281 68.97216797-43.51113281 112.20205078 0 37.80087891 12.65800781 72.67236328 33.92050781 100.63564453l-131.70058593 106.34765625c-18.89912109-24.64892578-48.59033203-40.62128906-82.05205078-40.62128906-57.01904297 0-103.21083984 46.33505859-103.21083985 103.35234375 0 56.98212891 46.19179688 103.24511719 103.20996094 103.24511718 57.01816406 0 103.31542969-46.26298828 103.31542969-103.24511718 0-18.05449219-4.68984375-35.04902344-12.83466797-49.82519532l133.04003906-107.40585937c30.39609375 33.07675781 74.08300781 53.95166016 122.71113281 53.95166016 24.68144531 0 47.99003906-5.32441406 69.04072266-15.02226563L630.6875 767.96386719c-31.27675781 17.77324219-52.29316406 51.27099609-52.29316406 89.74248047 0 57.0515625 46.26298828 103.31542969 103.35234375 103.31542968 57.01728516 0 103.17480469-46.26386719 103.17480468-103.31542968 0-56.98212891-46.15751953-103.28291016-103.17480468-103.28291016-13.22490234 0-25.70625 2.57519531-37.30605469 6.946875L598.03613281 655.87255859c37.62421875-21.58154297 66.07880859-57.58417969 77.7506836-100.39042968h77.53974609c-1.23574219 6.16816406-1.72792969 12.51650391-1.72792969 19.11005859 0 57.01728516 46.19355469 103.28027344 103.17216797 103.28027344 57.12539063 0 103.35585938-46.26298828 103.35585938-103.28027344-0.07382812-56.98212891-46.22958984-103.20996094-103.42265625-103.20996094z m0 0" p-id="2325" fill="#ffffff"></path></svg>