<?xml version="1.0" standalone="no"?><!DOCTYPE svg PUBLIC "-//W3C//DTD SVG 1.1//EN" "http://www.w3.org/Graphics/SVG/1.1/DTD/svg11.dtd"><svg t="1694258460203" class="icon" viewBox="0 0 1024 1024" version="1.1" xmlns="http://www.w3.org/2000/svg" p-id="19436" xmlns:xlink="http://www.w3.org/1999/xlink" width="200" height="200"><path d="M387.657143 872.228571L142.628571 157.257143l742.4 144.457143-497.371428 570.514285zM170.057143 181.028571l224.914286 656.457143 455.314285-522.971428L170.057143 181.028571z" fill="#2c2c2c" p-id="19437"></path><path d="M471.771429 444.342857l-80.457143 411.428572 477.257143-548.571429z" fill="#2c2c2c" p-id="19438"></path><path d="M391.314286 864.914286c-1.828571 0-1.828571 0-3.657143-1.828572-3.657143-1.828571-5.485714-5.485714-5.485714-9.142857l80.457142-411.428571c0-3.657143 3.657143-5.485714 5.485715-7.314286l396.8-135.314286c3.657143-1.828571 9.142857 0 10.971428 3.657143 1.828571 3.657143 1.828571 7.314286 0 10.971429l-475.428571 546.742857c-3.657143 1.828571-5.485714 3.657143-9.142857 3.657143z m87.771428-413.257143l-73.142857 373.028571L837.485714 329.142857l-358.4 122.514286z" fill="#2c2c2c" p-id="19439"></path><path d="M394.971429 890.514286L137.142857 138.971429 482.742857 438.857143l-87.771428 451.657143z m-219.428572-693.028572l213.942857 621.714286 73.142857-373.028571L175.542857 197.485714z" fill="#2c2c2c" p-id="19440"></path><path d="M155.428571 168.228571m-53.028571 0a53.028571 53.028571 0 1 0 106.057143 0 53.028571 53.028571 0 1 0-106.057143 0Z" fill="#2c2c2c" p-id="19441"></path><path d="M155.428571 230.4c-34.742857 0-62.171429-27.428571-62.171428-62.171429s27.428571-62.171429 62.171428-62.171428 62.171429 27.428571 62.171429 62.171428-27.428571 62.171429-62.171429 62.171429z m0-106.057143c-23.771429 0-43.885714 20.114286-43.885714 43.885714s20.114286 43.885714 43.885714 43.885715 43.885714-20.114286 43.885715-43.885715-18.285714-43.885714-43.885715-43.885714z" fill="#2c2c2c" p-id="19442"></path><path d="M868.571429 307.2m-53.028572 0a53.028571 53.028571 0 1 0 106.057143 0 53.028571 53.028571 0 1 0-106.057143 0Z" fill="#2c2c2c" p-id="19443"></path><path d="M868.571429 369.371429c-34.742857 0-62.171429-27.428571-62.171429-62.171429s27.428571-62.171429 62.171429-62.171429 62.171429 27.428571 62.171428 62.171429-29.257143 62.171429-62.171428 62.171429z m0-106.057143c-23.771429 0-43.885714 20.114286-43.885715 43.885714s20.114286 43.885714 43.885715 43.885714c23.771429 0 43.885714-20.114286 43.885714-43.885714s-20.114286-43.885714-43.885714-43.885714z" fill="#2c2c2c" p-id="19444"></path><path d="M391.314286 855.771429m-53.028572 0a53.028571 53.028571 0 1 0 106.057143 0 53.028571 53.028571 0 1 0-106.057143 0Z" fill="#2c2c2c" p-id="19445"></path><path d="M391.314286 917.942857c-34.742857 0-62.171429-27.428571-62.171429-62.171428s27.428571-62.171429 62.171429-62.171429 62.171429 27.428571 62.171428 62.171429c0 32.914286-27.428571 62.171429-62.171428 62.171428z m0-106.057143c-23.771429 0-43.885714 20.114286-43.885715 43.885715 0 23.771429 20.114286 43.885714 43.885715 43.885714s43.885714-20.114286 43.885714-43.885714c0-25.6-18.285714-43.885714-43.885714-43.885715z" fill="#2c2c2c" p-id="19446"></path><path d="M471.771429 444.342857m-53.028572 0a53.028571 53.028571 0 1 0 106.057143 0 53.028571 53.028571 0 1 0-106.057143 0Z" fill="#2c2c2c" p-id="19447"></path><path d="M471.771429 506.514286c-34.742857 0-62.171429-27.428571-62.171429-62.171429s27.428571-62.171429 62.171429-62.171428 62.171429 27.428571 62.171428 62.171428-27.428571 62.171429-62.171428 62.171429z m0-106.057143c-23.771429 0-43.885714 20.114286-43.885715 43.885714s20.114286 43.885714 43.885715 43.885714 43.885714-20.114286 43.885714-43.885714-20.114286-43.885714-43.885714-43.885714z" fill="#2c2c2c" p-id="19448"></path></svg>