<?xml version="1.0" standalone="no"?><!DOCTYPE svg PUBLIC "-//W3C//DTD SVG 1.1//EN" "http://www.w3.org/Graphics/SVG/1.1/DTD/svg11.dtd"><svg t="1694257495078" class="icon" viewBox="0 0 1024 1024" version="1.1" xmlns="http://www.w3.org/2000/svg" p-id="1797" xmlns:xlink="http://www.w3.org/1999/xlink" width="200" height="200"><path d="M419.352381 838.704762c-4.87619-4.87619-14.628571-4.87619-19.504762 0-124.342857 73.142857-224.304762 92.647619-265.752381 51.2-63.390476-63.390476 19.504762-285.257143 246.247619-512 24.380952-24.380952 51.2-48.761905 78.019048-73.142857 7.314286-7.314286 7.314286-17.066667 2.438095-26.819048-7.314286-7.314286-17.066667-7.314286-26.819048-2.438095-26.819048 21.942857-53.638095 48.761905-80.457142 73.142857C126.780952 580.266667 19.504762 826.514286 107.27619 914.285714c51.2 51.2 148.72381 41.447619 273.066667-24.380952l-14.628571 68.266667c-2.438095 9.752381 4.87619 19.504762 14.628571 21.942857h4.876191c7.314286 0 14.628571-4.87619 17.066666-14.628572l26.819048-107.27619c0-7.314286-2.438095-14.628571-9.752381-19.504762zM604.647619 182.857143c4.87619 4.87619 14.628571 4.87619 19.504762 0 124.342857-73.142857 224.304762-92.647619 265.752381-51.2 63.390476 63.390476-19.504762 285.257143-246.247619 512-24.380952 24.380952-51.2 48.761905-78.019048 73.142857-7.314286 7.314286-7.314286 17.066667-2.438095 26.819048 2.438095 4.87619 9.752381 7.314286 14.628571 7.314285 4.87619 0 7.314286-2.438095 12.190477-4.87619l80.457142-73.142857C897.219048 443.733333 1004.495238 195.047619 916.72381 107.27619c-51.2-51.2-148.72381-41.447619-273.066667 24.380953l14.628571-65.828572c2.438095-9.752381-4.87619-19.504762-14.628571-21.942857-9.752381-2.438095-19.504762 4.87619-21.942857 14.628572l-26.819048 107.27619c0 4.87619 2.438095 14.628571 9.752381 17.066667z" p-id="1798"></path><path d="M980.114286 633.904762L877.714286 609.52381h-9.752381c-4.87619 0-9.752381 0-14.628572 2.438095-9.752381 4.87619-12.190476 17.066667-7.314285 24.380952 65.828571 117.028571 82.895238 214.552381 43.885714 253.561905-63.390476 63.390476-285.257143-19.504762-512-246.247619-21.942857-21.942857-41.447619-41.447619-58.514286-63.390476-7.314286-7.314286-17.066667-7.314286-26.819047-2.438096-7.314286 7.314286-7.314286 17.066667-2.438096 26.819048 19.504762 21.942857 39.009524 43.885714 60.952381 65.828571 173.104762 173.104762 358.4 277.942857 475.428572 277.942858 36.571429 0 65.828571-9.752381 87.771428-31.695238 48.761905-48.761905 41.447619-143.847619-19.504762-263.314286l75.580953 19.504762h4.87619c7.314286 0 14.628571-4.87619 17.066667-14.628572 2.438095-9.752381-2.438095-19.504762-12.190476-24.380952zM151.161905 414.47619h4.87619c4.87619 0 9.752381 0 14.628572-2.438095 9.752381-4.87619 12.190476-17.066667 7.314285-24.380952C112.152381 268.190476 95.085714 173.104762 134.095238 134.095238c63.390476-63.390476 285.257143 19.504762 512 246.247619 19.504762 19.504762 41.447619 41.447619 58.514286 63.390476 2.438095 4.87619 9.752381 7.314286 14.628571 7.314286 4.87619 0 9.752381-2.438095 12.190476-4.87619 7.314286-7.314286 7.314286-17.066667 2.438096-26.819048-19.504762-21.942857-39.009524-43.885714-60.952381-65.828571C443.733333 126.780952 197.485714 17.066667 107.27619 107.27619c-48.761905 48.761905-41.447619 143.847619 19.504762 263.314286l-75.580952-19.504762c-9.752381-2.438095-19.504762 2.438095-21.942857 12.190476-2.438095 9.752381 2.438095 19.504762 12.190476 21.942858L146.285714 412.038095c2.438095 2.438095 4.87619 2.438095 4.876191 2.438095z" p-id="1799"></path><path d="M512 619.27619c-65.828571 0-121.904762-53.638095-121.904762-121.904761 0-65.828571 53.638095-121.904762 121.904762-121.904762 65.828571 0 121.904762 53.638095 121.904762 121.904762s-56.07619 121.904762-121.904762 121.904761z m0-204.8c-46.32381 0-85.333333 39.009524-85.333333 85.333334S465.67619 585.142857 512 585.142857s85.333333-39.009524 85.333333-85.333333c0-48.761905-39.009524-85.333333-85.333333-85.333334z" fill="#FF3900" p-id="1800"></path></svg>