<?xml version="1.0" standalone="no"?><!DOCTYPE svg PUBLIC "-//W3C//DTD SVG 1.1//EN" "http://www.w3.org/Graphics/SVG/1.1/DTD/svg11.dtd"><svg t="1694258691302" class="icon" viewBox="0 0 1024 1024" version="1.1" xmlns="http://www.w3.org/2000/svg" p-id="4162" xmlns:xlink="http://www.w3.org/1999/xlink" width="200" height="200"><path d="M861.280094 180.858238c-19.901508 7.463449-53.885649 12.90823-31.768207-4.851957 13.67379-10.974397 32.159675-20.745771 32.159675-20.745771s39.411547-26.644368 66.778547-51.523553c27.367-24.87714 65.85456-67.915134 42.39202-84.431412-19.190119-13.50923-113.049475 28.133583-164.293992 62.040044C751.69455 117.643789 651.036116 188.619121 562.746238 305.247004c-92.583763 122.302639-162.837485 253.085726-229.733575 404.725994-30.682726 3.164453-59.863972 7.838563-87.014285 13.821996 26.014749-5.137126 54.897538-8.805479 85.632392-10.68514-1.904191 4.328637-3.808383 8.668517-5.707463 13.031905-13.595088 31.220356-22.973971 74.449484-19.744103 87.734872-5.378344-6.789878-20.176455-23.392014-36.330907-23.392014-22.236007 0-21.74335 15.801824-33.646845 15.876438-9.667118 0.056216-23.048585-13.593043-36.732596-12.086453-18.019803 1.98085-37.192546 19.457912-37.192546 19.457912s13.218951-4.208028 28.439194-7.494112c23.115022-4.990964 27.596975 12.265322 46.335321 10.489917 19.90253-1.886815 18.057621-15.940831 32.765786-18.440912 11.149178-1.894992 30.994469 12.610796 36.844006 17.125456 0.290279 0.715477 0.637797 1.291947 1.046641 1.707946 5.626717 5.718707 33.361677-22.695957 47.397294-52.068337 6.139816-12.848947 14.128629-30.167582 26.927493-53.368461 143.759798 0.560116 259.790769 39.92669 259.790769 88.410487 0 48.830292-117.701099 88.417642-262.892873 88.417642-145.190752 0-262.891851-39.586328-262.891851-88.417642 0-22.171614 24.260807-42.434949 64.339792-57.95467-80.070068 27.857613-130.743225 69.045588-130.743225 115.000684 0 83.898893 168.876112 151.907039 377.198522 151.907039s377.194434-68.008146 377.194434-151.907039c0-83.895826-168.872023-151.911127-377.194434-151.911127-14.109209 0-28.023195 0.330142-41.730715 0.938297 13.033949-23.178393 30.729743-51.899689 55.741801-87.455836 49.742014-70.713671 73.576602-100.617549 118.591357-138.300708 37.389813-31.290881 72.095564-35.472334 72.095564-35.472334s106.41087-28.288944 137.701751-50.55357c35.103352-24.977307 60.622377-48.513438 54.734001-61.769185-11.618327-26.149667-87.794155 20.557702-94.537016 12.438059-4.823338-5.803542-11.100117-10.920225 15.971494-27.71554 29.305943-18.177208 89.855751-50.080333 132.175201-75.528832 49.608118-29.829264 74.956451-70.378419 68.289226-80.853004C941.046595 153.390049 881.182623 173.392745 861.280094 180.858238z" fill="#231815" p-id="4163"></path></svg>